<?xml version="1.0" encoding="UTF-8"?>
<svg id="Layer_1" data-name="Layer 1" xmlns="http://www.w3.org/2000/svg" xmlns:xlink="http://www.w3.org/1999/xlink" viewBox="0 0 328.17 68">
  <defs>
    <style>
      .cls-1 {
        fill: url(#linear-gradient-2);
      }

      .cls-2 {
        fill: url(#New_Gradient_Swatch_6);
      }

      .cls-3 {
        fill: url(#linear-gradient-6);
      }

      .cls-4 {
        fill: url(#radial-gradient);
      }

      .cls-5 {
        fill: url(#linear-gradient-5);
      }

      .cls-6 {
        fill: url(#radial-gradient-2);
      }

      .cls-7 {
        fill: url(#radial-gradient-3);
      }

      .cls-8 {
        fill: url(#linear-gradient-7);
      }

      .cls-9 {
        fill: url(#linear-gradient-3);
      }

      .cls-10 {
        fill: url(#linear-gradient);
      }

      .cls-11 {
        fill: url(#linear-gradient-4);
      }
    </style>
    <radialGradient id="radial-gradient" cx="326.28" cy="37.95" fx="326.28" fy="37.95" r="50.26" gradientTransform="translate(428.74 48.78) rotate(-172.73) scale(1.11 -.86)" gradientUnits="userSpaceOnUse">
      <stop offset="0" stop-color="#ff00eb"/>
      <stop offset="1" stop-color="#6800ff"/>
    </radialGradient>
    <radialGradient id="radial-gradient-2" cx="112.81" cy="-70.57" fx="112.81" fy="-70.57" r="10.84" gradientTransform="translate(216.5 -59.7) rotate(-180)" gradientUnits="userSpaceOnUse">
      <stop offset="0" stop-color="#6800ff"/>
      <stop offset=".12" stop-color="#8500fb"/>
      <stop offset=".32" stop-color="#b000f5"/>
      <stop offset=".51" stop-color="#d200f0"/>
      <stop offset=".69" stop-color="#eb00ed"/>
      <stop offset=".86" stop-color="#f900eb"/>
      <stop offset="1" stop-color="#ff00eb"/>
    </radialGradient>
    <radialGradient id="radial-gradient-3" cx="2255.14" cy="-755.38" fx="2255.14" fy="-755.38" r="14.84" gradientTransform="translate(-729.62 2308.24) rotate(-90) scale(1 -1)" gradientUnits="userSpaceOnUse">
      <stop offset="0" stop-color="#6800ff"/>
      <stop offset=".1" stop-color="#8c00fa"/>
      <stop offset=".22" stop-color="#af00f5"/>
      <stop offset=".34" stop-color="#cc00f1"/>
      <stop offset=".47" stop-color="#e200ee"/>
      <stop offset=".62" stop-color="#f200ec"/>
      <stop offset=".78" stop-color="#fc00eb"/>
      <stop offset="1" stop-color="#ff00eb"/>
    </radialGradient>
    <linearGradient id="linear-gradient" x1="-591.09" y1="208.1" x2="-589.13" y2="211.69" gradientTransform="translate(593.27 363.74) rotate(48.83)" gradientUnits="userSpaceOnUse">
      <stop offset="0" stop-color="#6800ff"/>
      <stop offset="1" stop-color="#ff00eb"/>
    </linearGradient>
    <linearGradient id="linear-gradient-2" x1="2016.07" y1="1733.22" x2="2022.24" y2="1733.22" gradientTransform="translate(2051.51 -1789.99) rotate(95.66)" xlink:href="#linear-gradient"/>
    <linearGradient id="linear-gradient-3" x1="-1805.17" y1="739.3" x2="-1803.24" y2="742.82" gradientTransform="translate(-1625.48 1012.45) rotate(171.35)" xlink:href="#linear-gradient"/>
    <linearGradient id="linear-gradient-4" x1="308.85" y1="118.85" x2="312.85" y2="118.85" gradientTransform="translate(-105.49 326.03) rotate(-72.41)" xlink:href="#linear-gradient"/>
    <linearGradient id="linear-gradient-5" x1="766.66" y1="1701.14" x2="770.48" y2="1701.14" gradientTransform="translate(-1551.48 -826.42) rotate(-38.15)" xlink:href="#linear-gradient"/>
    <linearGradient id="linear-gradient-6" x1="-451.47" y1="3088.13" x2="-450.19" y2="3090.46" gradientTransform="translate(-3078.11 -419.36) rotate(-90)" xlink:href="#linear-gradient"/>
    <linearGradient id="linear-gradient-7" x1="797.86" y1="-711.44" x2="804.04" y2="-711.44" gradientTransform="translate(-207.68 -1039.87) rotate(120.01)" xlink:href="#linear-gradient"/>
    <linearGradient id="New_Gradient_Swatch_6" data-name="New Gradient Swatch 6" x1="148.24" y1="34" x2="328.17" y2="34" gradientUnits="userSpaceOnUse">
      <stop offset="0" stop-color="#6800ff"/>
      <stop offset="1" stop-color="#ff00eb"/>
    </linearGradient>
  </defs>
  <g>
    <path class="cls-4" d="m0,23.43s5.13,6.94,16.48,14.41c-.4-.45-.79-.9-1.16-1.36C6.75,27.07,3.56,17.13,8.13,9.62,14.55-.91,36.81.3,36.81.3c0,0-17.57.43-21.98,8.23,20.12-11.18,65.01-2.97,96.01,11.11h0c9.91,4.37,18.34,9.73,23.99,16.06-6.64-4.95-14.97-10.54-29-15.8.16.08.32.16.48.24,2.43,1.25,4.81,2.59,7.1,4.03,2.29,1.44,4.5,2.97,6.56,4.64,2.07,1.66,3.99,3.44,5.67,5.37,1.69,1.92,3.13,3.99,4.21,6.16,1.08,2.17,1.77,4.47,1.94,6.76.18,2.29-.14,4.58-.93,6.73-.8,2.15-2.07,4.14-3.67,5.91-3.2,3.56-7.7,6.25-12.73,7.91l-.2-.31c4.79-1.91,8.96-4.72,11.77-8.25,2.82-3.51,4.16-7.75,3.56-11.95-.29-2.1-1.02-4.17-2.11-6.13-1.09-1.97-2.5-3.84-4.16-5.57-3.32-3.48-7.46-6.49-11.93-9.12-2.24-1.32-4.57-2.53-6.96-3.69-2.39-1.16-4.83-2.24-7.31-3.26-4.96-2.04-10.1-3.75-15.28-5.32-5.2-1.54-10.47-2.93-15.85-3.97-1.34-.26-2.69-.5-4.04-.71-1.35-.21-2.71-.41-4.07-.57-2.72-.32-5.45-.53-8.17-.61-5.43-.16-10.85.1-15.96.96-2.55.44-5.02,1.03-7.25,1.85-2.24.8-4.25,1.85-5.67,3.09-.19.15-.33.32-.5.47-.15.16-.3.32-.44.49-.12.17-.27.33-.37.5l-.16.25c-.06.09-.11.19-.17.28-.45.77-.76,1.58-.95,2.41-.38,1.66-.26,3.4.27,5.13.53,1.73,1.45,3.44,2.68,5.06,1.23,1.62,2.71,3.18,4.39,4.63,3.35,2.92,7.43,5.45,11.79,7.66,4.39,2.2,9.09,4.11,13.97,5.73,9.84,3.29,20.23,5.65,30.52,6.72,2.57.27,5.13.44,7.65.49,2.52.06,5,.02,7.38-.19,2.37-.21,4.65-.55,6.66-1.1,2-.55,3.76-1.28,4.97-2.18.62-.45,1.12-.92,1.51-1.45.39-.53.69-1.1.86-1.75.04-.16.09-.32.12-.5l.05-.26.02-.23c.04-.31.03-.61,0-.93-.05-.63-.25-1.29-.57-1.99-.65-1.39-1.86-2.89-3.41-4.32-1.55-1.43-3.42-2.8-5.45-4.08-4.07-2.56-8.71-4.79-13.55-6.73-4.85-1.93-9.91-3.6-15.05-5.01-5.15-1.39-10.41-2.54-15.66-3.28-2.62-.37-5.25-.66-7.8-.77-2.55-.12-5.05-.03-7.33.31-2.26.33-4.33,1-5.47,1.86-.59.42-.89.85-1.04,1.23-.14.39-.13.8.03,1.32.15.52.51,1.13,1.02,1.78.3.39.68.79,1.1,1.18,2.39-4.04,11.47-3.25,11.47-3.25-5.52-.08-10.51,5.57,3.18,11.36h-.02c1.82.7,3.69,1.36,5.65,2.01,2.49.84,5,1.6,7.52,2.26,2.51.66,5.03,1.23,7.5,1.6,2.46.37,4.91.59,7.03.45,1.04-.08,2-.23,2.68-.46.34-.11.62-.24.82-.36.2-.12.33-.23.43-.35.1-.12.17-.25.21-.44.04-.19.03-.44-.05-.73-.16-.58-.58-1.3-1.22-1.99-1.26-1.39-3.19-2.69-5.36-3.7-1.08-.52-2.23-.98-3.43-1.37-1.23-.41-2.51-.79-3.78-1.12-1.27-.33-2.55-.62-3.82-.84-.03,0-.06,0-.1-.02.52.14,1.06.29,1.59.47,5.86,1.88,9.9,5,9.02,6.96-.87,1.96-6.33,2.03-12.19.15-3.14-1.01-5.76-2.37-7.38-3.72-.08-.06-.16-.12-.23-.18-.21-.18-.4-.38-.58-.58-.78-.85-1.11-1.67-.88-2.36.03-.35.14-.7.32-1.02.38-.68,1.02-1.22,1.71-1.6,1.4-.76,2.96-1.07,4.47-1.24,3.05-.31,6.04-.06,8.95.36,1.46.21,2.88.47,4.32.79.07.02.14.03.21.05,22.63,4.88,26.84,12.75,26.79,15.15-.07,3.32-2.61,5.69-5.11,6.69,0,0,3.67-3.83-.2-7.7-1.51-1.5-3.66-2.54-5.73-3.25.09.39.16.79.17,1.2.04.9-.15,1.85-.58,2.72-.42.87-1.08,1.65-1.83,2.28-.75.63-1.59,1.11-2.44,1.5-1.71.77-3.43,1.15-5.1,1.39-3.34.45-6.5.36-9.55.08-3.06-.29-6.01-.78-8.91-1.37-2.89-.61-5.72-1.32-8.5-2.1-2.75-.77-5.59-1.68-8.34-2.75-2.75-1.08-5.46-2.32-8.06-3.79-2.59-1.49-5.1-3.18-7.32-5.3-1.1-1.07-2.15-2.22-3.03-3.55-.88-1.32-1.6-2.81-1.9-4.48-.15-.83-.18-1.7-.06-2.57.12-.87.4-1.74.82-2.54.84-1.61,2.24-2.91,3.75-3.82.75-.46,1.54-.85,2.33-1.17.4-.17.79-.3,1.19-.45.4-.12.8-.27,1.19-.37,1.59-.44,3.18-.74,4.74-.93,3.13-.38,6.19-.42,9.19-.31,3.01.12,5.92.39,8.82.76,5.78.76,11.44,1.86,17.02,3.23,5.58,1.36,11.08,2.99,16.47,4.94,5.39,1.96,10.7,4.21,15.77,7.1,2.53,1.45,4.99,3.07,7.3,4.98,2.29,1.91,4.46,4.15,5.98,6.91.59,1.07,1.07,2.22,1.38,3.41l.07-.05c3.74,13.41-17.32,29.43-60.99,22.6,0,0,13.22-.3,24.62-2.3-1.62-.08-3.22-.18-4.82-.32-5.94-.54-11.78-1.48-17.51-2.76-.18-.04-.35-.08-.53-.12l.13.07C21.21,52.62,2.37,32.97,0,23.43Z"/>
    <polygon class="cls-6" points="103.69 21.73 103.21 11.35 92.87 10.87 103.21 10.39 103.69 0 104.17 10.39 114.5 10.87 104.17 11.35 103.69 21.73"/>
    <polygon class="cls-7" points="40.64 53.11 26.42 52.45 25.76 38.3 25.11 52.45 10.89 53.11 25.11 53.76 25.76 67.91 26.42 53.76 40.64 53.11"/>
    <path class="cls-10" d="m48.14,59.23c-.85.74-2.13.66-2.87-.19s-.65-2.14.2-2.89,2.13-.66,2.87.19.65,2.14-.2,2.89Z"/>
    <ellipse class="cls-1" cx="127.65" cy="48.43" rx="3.1" ry="3.09" transform="translate(69.15 171.79) rotate(-85.41)"/>
    <path class="cls-9" d="m44.83,8.86c-.17-1.09.58-2.11,1.67-2.28s2.11.59,2.28,1.68-.58,2.11-1.67,2.28-2.11-.59-2.28-1.68Z"/>
    <path class="cls-11" d="m102.37,63.73c1.05.33,1.64,1.45,1.3,2.51s-1.46,1.64-2.52,1.3-1.64-1.45-1.3-2.51,1.46-1.64,2.52-1.3Z"/>
    <path class="cls-5" d="m105.19,35.54c.65.83.5,2.03-.33,2.68s-2.02.51-2.67-.32-.5-2.03.33-2.68,2.02-.51,2.67.32Z"/>
    <ellipse class="cls-3" cx="11.19" cy="31.47" rx="1.32" ry="1.33" transform="translate(-12.25 7.68) rotate(-25)"/>
    <ellipse class="cls-8" cx="7.87" cy="9.51" rx="3.1" ry="3.09" transform="translate(-4.3 11.57) rotate(-60)"/>
  </g>
  <path class="cls-2" d="m148.74,34.41V11.5h4.39l13.52,16.5h-2.13V11.5h5.24v22.91h-4.39l-13.52-16.5h2.13v16.5h-5.24Zm32.7-4.25h12.47v4.25h-17.74V11.5h17.31v4.25h-12.04v14.4Zm-.39-9.46h11.03v4.16h-11.03v-4.16Zm18.07,13.71V11.5h11.19c2.88,0,5.05.55,6.5,1.64,1.45,1.09,2.18,2.53,2.18,4.32,0,1.2-.29,2.24-.88,3.13-.59.88-1.4,1.57-2.44,2.05-1.04.48-2.21.72-3.52.72l.62-1.37c1.44,0,2.71.24,3.81.72,1.1.48,1.97,1.18,2.6,2.09.63.92.95,2.04.95,3.37,0,1.96-.77,3.5-2.32,4.6s-3.83,1.65-6.84,1.65h-11.85Zm5.27-3.99h6.22c1.35,0,2.39-.23,3.11-.69.72-.46,1.08-1.17,1.08-2.13s-.36-1.7-1.08-2.16c-.72-.46-1.76-.69-3.11-.69h-6.61v-3.86h5.66c1.29,0,2.27-.22,2.96-.67.69-.45,1.03-1.13,1.03-2.05s-.34-1.59-1.03-2.03c-.69-.44-1.67-.65-2.96-.65h-5.27v14.92Zm30.93,4.39c-3.25,0-5.79-.91-7.63-2.72-1.83-1.81-2.75-4.41-2.75-7.79v-12.8h5.34v12.67c0,2.16.45,3.73,1.34,4.7.89.97,2.14,1.46,3.73,1.46s2.87-.49,3.76-1.46c.89-.97,1.34-2.54,1.34-4.7v-12.67h5.2v12.8c0,3.38-.92,5.98-2.75,7.79-1.83,1.81-4.36,2.72-7.59,2.72Zm16.59-.39V11.5h5.33v18.59h11.42v4.32h-16.76Zm17.77,0l10.18-22.91h5.24l10.28,22.91h-5.56l-8.41-20.23h2.13l-8.41,20.23h-5.43Zm5.14-4.91l1.34-4.03h11.85l1.37,4.03h-14.56Zm-121.22,26.89v-13.91h-5.36v-.98h11.81v.98h-5.36v13.91h-1.08Zm10.85-.98h9.19v.98h-10.28v-14.89h9.96v.98h-8.87v12.93Zm-.13-7.06h8.06v.96h-8.06v-.96Zm20.21,8.15c-1.11,0-2.13-.19-3.07-.56-.94-.38-1.76-.9-2.46-1.58-.7-.68-1.23-1.48-1.62-2.39s-.57-1.92-.57-3.01.19-2.1.57-3.01.93-1.71,1.63-2.39c.7-.68,1.52-1.21,2.46-1.58.94-.38,1.96-.56,3.06-.56,1.05,0,2.03.17,2.95.51s1.7.86,2.35,1.55l-.68.7c-.64-.62-1.34-1.07-2.12-1.35-.77-.28-1.59-.42-2.46-.42-.95,0-1.83.16-2.65.49-.82.33-1.52.79-2.13,1.38-.6.6-1.07,1.29-1.4,2.08-.33.79-.5,1.66-.5,2.6s.17,1.8.5,2.6.8,1.49,1.4,2.08c.6.6,1.31,1.06,2.13,1.38.82.33,1.7.49,2.65.49.86,0,1.68-.14,2.46-.42.77-.28,1.48-.73,2.12-1.37l.68.7c-.65.69-1.44,1.22-2.35,1.56-.91.35-1.9.52-2.95.52Zm10.66-.11h-1.09v-14.89h1.09v14.89Zm10.08-7.08h-10.21v-.96h10.21v.96Zm-.13-7.81h1.08v14.89h-1.08v-14.89Zm6.91,14.89v-14.89h.91l10.62,13.55h-.49v-13.55h1.08v14.89h-.89l-10.64-13.55h.49v13.55h-1.09Zm24.27.11c-1.11,0-2.13-.19-3.07-.56-.94-.38-1.77-.91-2.47-1.6-.7-.69-1.24-1.49-1.63-2.4s-.57-1.91-.57-2.99.19-2.07.57-2.99.93-1.72,1.63-2.4c.7-.69,1.52-1.22,2.47-1.6.94-.38,1.97-.56,3.07-.56s2.13.19,3.07.56c.94.38,1.76.9,2.46,1.58.69.68,1.24,1.48,1.63,2.39.39.91.59,1.92.59,3.01s-.2,2.1-.59,3.01c-.39.91-.93,1.71-1.63,2.39-.7.68-1.51,1.21-2.46,1.58-.94.38-1.97.56-3.07.56Zm0-1c.95,0,1.83-.16,2.64-.49.81-.33,1.51-.79,2.11-1.38.6-.6,1.06-1.29,1.39-2.08s.5-1.66.5-2.6-.17-1.82-.5-2.61c-.33-.79-.8-1.48-1.39-2.07-.6-.6-1.3-1.06-2.11-1.38s-1.69-.49-2.64-.49-1.83.16-2.64.49c-.81.33-1.51.79-2.12,1.38-.6.6-1.07,1.29-1.4,2.07-.33.79-.5,1.66-.5,2.61s.17,1.8.5,2.6.8,1.49,1.4,2.08c.6.6,1.31,1.06,2.12,1.38.81.33,1.69.49,2.64.49Zm12.15.89v-14.89h1.09v13.91h8.57v.98h-9.66Zm19.4.11c-1.11,0-2.13-.19-3.07-.56-.94-.38-1.77-.91-2.47-1.6-.7-.69-1.24-1.49-1.63-2.4s-.57-1.91-.57-2.99.19-2.07.57-2.99.93-1.72,1.63-2.4c.7-.69,1.52-1.22,2.47-1.6.94-.38,1.97-.56,3.07-.56s2.13.19,3.07.56c.94.38,1.76.9,2.46,1.58.69.68,1.24,1.48,1.63,2.39.39.91.59,1.92.59,3.01s-.2,2.1-.59,3.01c-.39.91-.93,1.71-1.63,2.39-.7.68-1.51,1.21-2.46,1.58-.94.38-1.97.56-3.07.56Zm0-1c.95,0,1.83-.16,2.64-.49.81-.33,1.51-.79,2.11-1.38.6-.6,1.06-1.29,1.39-2.08s.5-1.66.5-2.6-.17-1.82-.5-2.61c-.33-.79-.8-1.48-1.39-2.07-.6-.6-1.3-1.06-2.11-1.38s-1.69-.49-2.64-.49-1.83.16-2.64.49c-.81.33-1.51.79-2.12,1.38-.6.6-1.07,1.29-1.4,2.07-.33.79-.5,1.66-.5,2.61s.17,1.8.5,2.6.8,1.49,1.4,2.08c.6.6,1.31,1.06,2.12,1.38.81.33,1.69.49,2.64.49Zm18.51,1c-1.12,0-2.16-.19-3.11-.56-.95-.38-1.78-.9-2.48-1.58s-1.24-1.48-1.63-2.39-.57-1.92-.57-3.01.19-2.1.57-3.01.93-1.71,1.64-2.39,1.54-1.21,2.48-1.58c.94-.38,1.98-.56,3.12-.56s2.08.17,3,.51,1.71.85,2.36,1.53l-.68.72c-.65-.64-1.36-1.09-2.14-1.36-.77-.27-1.61-.4-2.52-.4-.96,0-1.86.16-2.68.49-.82.33-1.54.79-2.15,1.38-.61.6-1.08,1.29-1.41,2.08-.33.79-.5,1.66-.5,2.6s.17,1.8.5,2.6.8,1.49,1.41,2.08c.61.6,1.33,1.06,2.15,1.38.82.33,1.72.49,2.68.49.88,0,1.71-.13,2.5-.4.79-.27,1.51-.72,2.16-1.34l.62.83c-.67.64-1.46,1.12-2.39,1.44-.93.32-1.9.48-2.93.48Zm4.28-2.02v-5.47h1.04v5.57l-1.04-.11Zm6.45,1.91v-14.89h1.09v14.89h-1.09Zm8-.98h9.19v.98h-10.28v-14.89h9.96v.98h-8.87v12.93Zm-.13-7.06h8.06v.96h-8.06v-.96Zm17.83,8.15c-1.11,0-2.15-.19-3.14-.56-.99-.38-1.75-.86-2.29-1.46l.49-.81c.51.52,1.21.97,2.1,1.33.89.36,1.83.54,2.82.54s1.8-.13,2.44-.39,1.1-.61,1.4-1.05c.3-.44.46-.93.46-1.47,0-.64-.17-1.15-.51-1.53-.34-.38-.79-.69-1.34-.91-.55-.23-1.16-.42-1.81-.57s-1.31-.32-1.98-.5-1.28-.41-1.83-.69c-.55-.28-1-.67-1.33-1.16-.33-.49-.5-1.12-.5-1.9,0-.71.18-1.36.55-1.96.37-.6.94-1.08,1.72-1.45.78-.37,1.78-.55,3-.55.82,0,1.63.12,2.44.36.8.24,1.49.57,2.05.98l-.4.87c-.62-.43-1.29-.74-2.01-.95-.72-.21-1.41-.31-2.07-.31-.95,0-1.74.13-2.36.4-.62.27-1.09.63-1.38,1.07-.3.45-.45.95-.45,1.5,0,.64.17,1.15.5,1.53s.78.69,1.33.91,1.16.42,1.83.57c.67.16,1.33.32,1.98.5s1.25.41,1.81.69c.55.28,1,.67,1.34,1.15.34.48.51,1.11.51,1.87,0,.69-.19,1.34-.57,1.95s-.97,1.08-1.75,1.45c-.79.36-1.8.54-3.03.54Z"/>
</svg>