<?xml version="1.0" encoding="UTF-8"?>
<svg id="Layer_1" data-name="Layer 1" xmlns="http://www.w3.org/2000/svg" xmlns:xlink="http://www.w3.org/1999/xlink" viewBox="0 0 134.83 68">
  <defs>
    <style>
      .cls-1 {
        fill: url(#linear-gradient-2);
      }

      .cls-2 {
        fill: url(#linear-gradient-6);
      }

      .cls-3 {
        fill: url(#radial-gradient);
      }

      .cls-4 {
        fill: url(#linear-gradient-5);
      }

      .cls-5 {
        fill: url(#radial-gradient-2);
      }

      .cls-6 {
        fill: url(#radial-gradient-3);
      }

      .cls-7 {
        fill: url(#linear-gradient-7);
      }

      .cls-8 {
        fill: url(#linear-gradient-3);
      }

      .cls-9 {
        fill: url(#linear-gradient);
      }

      .cls-10 {
        fill: url(#linear-gradient-4);
      }
    </style>
    <radialGradient id="radial-gradient" cx="86.19" cy="23.49" fx="86.19" fy="23.49" r="50.26" gradientTransform="translate(163.77 27.55) rotate(-172.73) scale(1.11 -.86)" gradientUnits="userSpaceOnUse">
      <stop offset="0" stop-color="#ff00eb"/>
      <stop offset="1" stop-color="#6800ff"/>
    </radialGradient>
    <radialGradient id="radial-gradient-2" cx="-137.19" cy="-122.57" fx="-137.19" fy="-122.57" r="10.84" gradientTransform="translate(-33.5 -111.7) rotate(-180)" gradientUnits="userSpaceOnUse">
      <stop offset="0" stop-color="#6800ff"/>
      <stop offset=".12" stop-color="#8500fb"/>
      <stop offset=".32" stop-color="#b000f5"/>
      <stop offset=".51" stop-color="#d200f0"/>
      <stop offset=".69" stop-color="#eb00ed"/>
      <stop offset=".86" stop-color="#f900eb"/>
      <stop offset="1" stop-color="#ff00eb"/>
    </radialGradient>
    <radialGradient id="radial-gradient-3" cx="2104.14" cy="-906.38" fx="2104.14" fy="-906.38" r="14.84" gradientTransform="translate(-880.62 2157.24) rotate(-90) scale(1 -1)" gradientUnits="userSpaceOnUse">
      <stop offset="0" stop-color="#6800ff"/>
      <stop offset=".1" stop-color="#8c00fa"/>
      <stop offset=".22" stop-color="#af00f5"/>
      <stop offset=".34" stop-color="#cc00f1"/>
      <stop offset=".47" stop-color="#e200ee"/>
      <stop offset=".62" stop-color="#f200ec"/>
      <stop offset=".78" stop-color="#fc00eb"/>
      <stop offset="1" stop-color="#ff00eb"/>
    </radialGradient>
    <linearGradient id="linear-gradient" x1="-614.24" y1="105.12" x2="-612.27" y2="108.71" gradientTransform="translate(530.98 448.95) rotate(48.83)" gradientUnits="userSpaceOnUse">
      <stop offset="0" stop-color="#6800ff"/>
      <stop offset="1" stop-color="#ff00eb"/>
    </linearGradient>
    <linearGradient id="linear-gradient-2" x1="2018.71" y1="1710.55" x2="2024.88" y2="1710.55" gradientTransform="translate(2029.21 -1794.85) rotate(95.66)" xlink:href="#linear-gradient"/>
    <linearGradient id="linear-gradient-3" x1="-2049.84" y1="668.8" x2="-2047.91" y2="672.32" gradientTransform="translate(-1877.97 979.54) rotate(171.35)" xlink:href="#linear-gradient"/>
    <linearGradient id="linear-gradient-4" x1="196.85" y1="219.87" x2="200.85" y2="219.87" gradientTransform="translate(-167.92 188.73) rotate(-72.41)" xlink:href="#linear-gradient"/>
    <linearGradient id="linear-gradient-5" x1="723.91" y1="1772.8" x2="727.73" y2="1772.8" gradientTransform="translate(-1562.11 -909.18) rotate(-38.15)" xlink:href="#linear-gradient"/>
    <linearGradient id="linear-gradient-6" x1="-652.85" y1="3164.44" x2="-651.58" y2="3166.76" gradientTransform="translate(-3154.41 -620.75) rotate(-90)" xlink:href="#linear-gradient"/>
    <linearGradient id="linear-gradient-7" x1="757.86" y1="-832.7" x2="764.04" y2="-832.7" gradientTransform="translate(-332.69 -1065.88) rotate(120.01)" xlink:href="#linear-gradient"/>
  </defs>
  <path class="cls-3" d="m0,23.43s5.13,6.94,16.48,14.41c-.4-.45-.79-.9-1.16-1.36C6.75,27.07,3.56,17.13,8.13,9.62,14.55-.91,36.81.3,36.81.3c0,0-17.57.43-21.98,8.23,20.12-11.18,65.01-2.97,96.01,11.11h0c9.91,4.37,18.34,9.73,23.99,16.06-6.64-4.95-14.97-10.54-29-15.8.16.08.32.16.48.24,2.43,1.25,4.81,2.59,7.1,4.03,2.29,1.44,4.5,2.97,6.56,4.64,2.07,1.66,3.99,3.44,5.67,5.37,1.69,1.92,3.13,3.99,4.21,6.16,1.08,2.17,1.77,4.47,1.94,6.76.18,2.29-.14,4.58-.93,6.73-.8,2.15-2.07,4.14-3.67,5.91-3.2,3.56-7.7,6.25-12.73,7.91l-.2-.31c4.79-1.91,8.96-4.72,11.77-8.25,2.82-3.51,4.16-7.75,3.56-11.95-.29-2.1-1.02-4.17-2.11-6.13-1.09-1.97-2.5-3.84-4.16-5.57-3.32-3.48-7.46-6.49-11.93-9.12-2.24-1.32-4.57-2.53-6.96-3.69-2.39-1.16-4.83-2.24-7.31-3.26-4.96-2.04-10.1-3.75-15.28-5.32-5.2-1.54-10.47-2.93-15.85-3.97-1.34-.26-2.69-.5-4.04-.71-1.35-.21-2.71-.41-4.07-.57-2.72-.32-5.45-.53-8.17-.61-5.43-.16-10.85.1-15.96.96-2.55.44-5.02,1.03-7.25,1.85-2.24.8-4.25,1.85-5.67,3.09-.19.15-.33.32-.5.47-.15.16-.3.32-.44.49-.12.17-.27.33-.37.5l-.16.25c-.06.09-.11.19-.17.28-.45.77-.76,1.58-.95,2.41-.38,1.66-.26,3.4.27,5.13.53,1.73,1.45,3.44,2.68,5.06,1.23,1.62,2.71,3.18,4.39,4.63,3.35,2.92,7.43,5.45,11.79,7.66,4.39,2.2,9.09,4.11,13.97,5.73,9.84,3.29,20.23,5.65,30.52,6.72,2.57.27,5.13.44,7.65.49,2.52.06,5,.02,7.38-.19,2.37-.21,4.65-.55,6.66-1.1,2-.55,3.76-1.28,4.97-2.18.62-.45,1.12-.92,1.51-1.45.39-.53.69-1.1.86-1.75.04-.16.09-.32.12-.5l.05-.26.02-.23c.04-.31.03-.61,0-.93-.05-.63-.25-1.29-.57-1.99-.65-1.39-1.86-2.89-3.41-4.32-1.55-1.43-3.42-2.8-5.45-4.08-4.07-2.56-8.71-4.79-13.55-6.73-4.85-1.93-9.91-3.6-15.05-5.01-5.15-1.39-10.41-2.54-15.66-3.28-2.62-.37-5.25-.66-7.8-.77-2.55-.12-5.05-.03-7.33.31-2.26.33-4.33,1-5.47,1.86-.59.42-.89.85-1.04,1.23-.14.39-.13.8.03,1.32.15.52.51,1.13,1.02,1.78.3.39.68.79,1.1,1.18,2.39-4.04,11.47-3.25,11.47-3.25-5.52-.08-10.51,5.57,3.18,11.36h-.02c1.82.7,3.69,1.36,5.65,2.01,2.49.84,5,1.6,7.52,2.26,2.51.66,5.03,1.23,7.5,1.6,2.46.37,4.91.59,7.03.45,1.04-.08,2-.23,2.68-.46.34-.11.62-.24.82-.36.2-.12.33-.23.43-.35.1-.12.17-.25.21-.44.04-.19.03-.44-.05-.73-.16-.58-.58-1.3-1.22-1.99-1.26-1.39-3.19-2.69-5.36-3.7-1.08-.52-2.23-.98-3.43-1.37-1.23-.41-2.51-.79-3.78-1.12-1.27-.33-2.55-.62-3.82-.84-.03,0-.06,0-.1-.02.52.14,1.06.29,1.59.47,5.86,1.88,9.9,5,9.02,6.96-.87,1.96-6.33,2.03-12.19.15-3.14-1.01-5.76-2.37-7.38-3.72-.08-.06-.16-.12-.23-.18-.21-.18-.4-.38-.58-.58-.78-.85-1.11-1.67-.88-2.36.03-.35.14-.7.32-1.02.38-.68,1.02-1.22,1.71-1.6,1.4-.76,2.96-1.07,4.47-1.24,3.05-.31,6.04-.06,8.95.36,1.46.21,2.88.47,4.32.79.07.02.14.03.21.05,22.63,4.88,26.84,12.75,26.79,15.15-.07,3.32-2.61,5.69-5.11,6.69,0,0,3.67-3.83-.2-7.7-1.51-1.5-3.66-2.54-5.73-3.25.09.39.16.79.17,1.2.04.9-.15,1.85-.58,2.72-.42.87-1.08,1.65-1.83,2.28-.75.63-1.59,1.11-2.44,1.5-1.71.77-3.43,1.15-5.1,1.39-3.34.45-6.5.36-9.55.08-3.06-.29-6.01-.78-8.91-1.37-2.89-.61-5.72-1.32-8.5-2.1-2.75-.77-5.59-1.68-8.34-2.75-2.75-1.08-5.46-2.32-8.06-3.79-2.59-1.49-5.1-3.18-7.32-5.3-1.1-1.07-2.15-2.22-3.03-3.55-.88-1.32-1.6-2.81-1.9-4.48-.15-.83-.18-1.7-.06-2.57.12-.87.4-1.74.82-2.54.84-1.61,2.24-2.91,3.75-3.82.75-.46,1.54-.85,2.33-1.17.4-.17.79-.3,1.19-.45.4-.12.8-.27,1.19-.37,1.59-.44,3.18-.74,4.74-.93,3.13-.38,6.19-.42,9.19-.31,3.01.12,5.92.39,8.82.76,5.78.76,11.44,1.86,17.02,3.23,5.58,1.36,11.08,2.99,16.47,4.94,5.39,1.96,10.7,4.21,15.77,7.1,2.53,1.45,4.99,3.07,7.3,4.98,2.29,1.91,4.46,4.15,5.98,6.91.59,1.07,1.07,2.22,1.38,3.41l.07-.05c3.74,13.41-17.32,29.43-60.99,22.6,0,0,13.22-.3,24.62-2.3-1.62-.08-3.22-.18-4.82-.32-5.94-.54-11.78-1.48-17.51-2.76-.18-.04-.35-.08-.53-.12l.13.07C21.21,52.62,2.37,32.97,0,23.43Z"/>
  <polygon class="cls-5" points="103.69 21.73 103.21 11.35 92.87 10.87 103.21 10.39 103.69 0 104.17 10.39 114.5 10.87 104.17 11.35 103.69 21.73"/>
  <polygon class="cls-6" points="40.64 53.11 26.42 52.45 25.76 38.3 25.11 52.45 10.89 53.11 25.11 53.76 25.76 67.91 26.42 53.76 40.64 53.11"/>
  <path class="cls-9" d="m48.14,59.23c-.85.74-2.13.66-2.87-.19s-.65-2.14.2-2.89,2.13-.66,2.87.19.65,2.14-.2,2.89Z"/>
  <ellipse class="cls-1" cx="127.65" cy="48.43" rx="3.1" ry="3.09" transform="translate(69.15 171.79) rotate(-85.41)"/>
  <path class="cls-8" d="m44.83,8.86c-.17-1.09.58-2.11,1.67-2.28s2.11.59,2.28,1.68-.58,2.11-1.67,2.28-2.11-.59-2.28-1.68Z"/>
  <path class="cls-10" d="m102.37,63.73c1.05.33,1.64,1.45,1.3,2.51s-1.46,1.64-2.52,1.3-1.64-1.45-1.3-2.51,1.46-1.64,2.52-1.3Z"/>
  <path class="cls-4" d="m105.19,35.54c.65.83.5,2.03-.33,2.68s-2.02.51-2.67-.32-.5-2.03.33-2.68,2.02-.51,2.67.32Z"/>
  <ellipse class="cls-2" cx="11.19" cy="31.47" rx="1.32" ry="1.33" transform="translate(-12.25 7.68) rotate(-25)"/>
  <ellipse class="cls-7" cx="7.87" cy="9.51" rx="3.1" ry="3.09" transform="translate(-4.3 11.57) rotate(-60)"/>
</svg>